<svg data-v-0dd9719b="" version="1.0" xmlns="http://www.w3.org/2000/svg" xmlns:xlink="http://www.w3.org/1999/xlink" width="100%" height="100%" viewBox="0 0 340.000000 250.000000" preserveAspectRatio="xMidYMid meet" color-interpolation-filters="sRGB" style="margin: auto;"> <rect data-v-0dd9719b="" x="0" y="0" width="100%" height="100%" fill="#fff" fill-opacity="1" class="background"></rect> <rect data-v-0dd9719b="" x="0" y="0" width="100%" height="100%" fill="url(#watermark)" fill-opacity="1" class="watermarklayer"></rect> <g data-v-0dd9719b="" fill="#abcd03" class="icon-text-wrapper icon-svg-group iconsvg" transform="translate(49.22001647949219,94.981689453125)"><g class="iconsvg-imagesvg" transform="translate(0,0)"><g><rect fill="#abcd03" fill-opacity="0" stroke-width="2" x="0" y="0" width="60" height="60.03662233962717" class="image-rect"></rect> <svg x="0" y="0" width="60" height="60.03662233962717" filtersec="colorsb4191919617" class="image-svg-svg primary" style="overflow: visible;"><svg xmlns="http://www.w3.org/2000/svg" viewBox="0.019693594425916672 -0.00500159477815032 23.8654727935791 23.880002975463867"><g><g fill-rule="evenodd"><path d="M6.69 10.28l5.36-5.63 3.81-4a11.94 11.94 0 1 0 0 22.57l-3.8-4-5.34-5.6a2 2 0 0 1-.29-.39 2.63 2.63 0 0 1 .26-2.95z" fill="#abcd03"></path><path d="M21.77 5.16L10.5 10.28c-1.58.72-1.86 2-.63 3a3.48 3.48 0 0 0 .68.39l11.22 5.09a11.94 11.94 0 0 0 0-13.57z" fill="#008cd6"></path></g></g></svg></svg> <!----></g></g> <g transform="translate(67,1.4747505187988281)"><g data-gra="path-name" fill-rule="" class="tp-name iconsvg-namesvg" transform="translate(0,0)"><g transform="scale(1)"><g><path d="M4.75-2.29L4.75-2.29Q8.22-8.83 9.54-11.65L9.54-11.65Q10.77-14.41 13.18-12.48L13.18-12.48Q14.85-11.21 13.97-9.18L13.97-9.18Q11.6-3.74 9.45 0.48L9.45 0.48Q8.04 3.03 5.67 1.32L5.67 1.32Q3.56-0.22 4.75-2.29ZM6.28-18.94L6.28-18.94Q5.1-19.73 4.31-20.13L4.31-20.13Q1.89-21.27 3.56-23.55L3.56-23.55Q4.7-25.18 6.59-24.39L6.59-24.39Q8.48-23.55 11.12-22.02L11.12-22.02Q12.83-20.79 11.47-18.76L11.47-18.76Q9.84-16.39 7.69-18.06L7.69-18.06Q7.43-18.24 6.92-18.54 6.42-18.85 6.28-18.94ZM10.24-30.32L10.24-30.32Q8.79-31.42 6.94-32.43L6.94-32.43Q4.44-33.62 6.2-35.9L6.2-35.9Q7.43-37.57 9.23-36.78L9.23-36.78Q11.29-35.82 13.84-34.19L13.84-34.19Q14.81-33.4 14.85-32.63 14.9-31.86 14.11-30.89L14.11-30.89Q12.35-28.61 10.24-30.32ZM35.68-4.44L35.68-11.95 21.75-11.95 21.75-4.44Q21.75-3.38 22.81-3.38L22.81-3.38 34.58-3.38Q35.68-3.38 35.68-4.44L35.68-4.44ZM21.75-23.99L21.75-16.92 35.68-16.92 35.68-23.99Q35.68-25.05 34.58-25.05L34.58-25.05 22.81-25.05Q21.75-25.05 21.75-23.99L21.75-23.99ZM38.19 1.8L38.19 1.8 19.42 1.8Q18.11 1.8 17.31 0.99 16.52 0.18 16.52-1.14L16.52-1.14 16.52-27.29Q16.52-28.61 17.31-29.4 18.11-30.19 19.42-30.19L19.42-30.19 24.04-30.19Q24.57-32.48 24.92-34.94L24.92-34.94Q25.14-36.52 25.93-37.18 26.72-37.84 28.3-37.66L28.3-37.66Q31.55-37.35 30.59-33.93L30.59-33.93Q29.66-30.85 29.44-30.19L29.44-30.19 38.19-30.19Q39.51-30.19 40.32-29.4 41.13-28.61 41.13-27.29L41.13-27.29 41.13-1.14Q41.13 0.18 40.32 0.99 39.51 1.8 38.19 1.8ZM58.71-24.74L58.71-24.74 78.09-24.74Q75.32-27.99 73.21-31.9L73.21-31.9 62.53-31.9Q60.73-28.65 58.32-25.62L58.32-25.62Q57.66-24.74 58.71-24.74ZM62.93-15.29L62.93-15.29 77.48-15.29Q79.01-15.29 79.67-14.08 80.33-12.88 79.98-9.98L79.98-9.98Q79.19-4.39 78.4-1.74 77.61 0.92 76.42 2.07L76.42 2.07Q74.71 3.74 71.54 3.91L71.54 3.91Q69.08 4 67.02 3.96L67.02 3.96Q63.94 3.87 63.37 1.32L63.37 1.32Q62.71 0.13 63.08-0.55 63.46-1.23 65.13-1.14L65.13-1.14Q67.15-1.01 69.74-1.01L69.74-1.01Q71.41-1.01 72.03-1.49L72.03-1.49Q73.74-2.68 74.71-10.5L74.71-10.5 61.17-10.5Q61.13-10.46 61.13-10.42L61.13-10.42Q60.34-8.22 58.01-8.61L58.01-8.61Q56.43-8.88 55.94-9.56 55.46-10.24 56.03-11.69L56.03-11.69Q57.04-14.19 58.89-19.86L58.89-19.86 57.13-19.86Q56.47-19.86 56.07-20.26 55.68-20.65 55.68-21.31L55.68-21.31 55.68-22.5Q54.89-21.67 53.35-20.21L53.35-20.21Q51.33-18.5 49.35-20.13L49.35-20.13Q47.94-21.36 48.03-22.35 48.12-23.33 49.61-24.48L49.61-24.48Q53.26-27.6 55.85-31.6L55.85-31.6Q56.43-32.56 57.44-32.98 58.45-33.4 59.59-33.05L59.59-33.05 62.45-32.12 62.45-34.63Q62.45-35.64 63.08-36.28 63.72-36.91 64.73-36.91L64.73-36.91 74.44-36.91Q76.64-36.91 77.52-34.98L77.52-34.98Q80.73-28.96 85.65-24.92L85.65-24.92Q87.19-23.82 87.34-22.81 87.5-21.8 86.13-20.52L86.13-20.52Q84.95-19.56 84.05-19.6 83.14-19.64 81.96-20.65L81.96-20.65Q80.6-21.84 79.54-22.98L79.54-22.98 79.54-21.27Q79.54-19.86 78.13-19.86L78.13-19.86 64.42-19.86Q63.46-16.79 62.93-15.29ZM96.68-35.64L96.68-35.64 128.63-35.64Q129.95-35.64 130.74-34.83 131.53-34.01 131.53-32.7L131.53-32.7 131.53-2.24Q131.53-0.13 131.02 1.03 130.52 2.2 129.29 2.77L129.29 2.77Q127.53 3.69 124.54 3.74L124.54 3.74Q121.46 3.82 120.76 1.71L120.76 1.71Q120.19 0.04 121.11-0.68 122.04-1.41 124.01-1.32L124.01-1.32 125.33-1.32Q125.9-1.36 126.12-1.56 126.34-1.76 126.34-2.33L126.34-2.33 126.34-29.49Q126.34-30.54 125.29-30.54L125.29-30.54 121.51-30.54Q121.29-23.82 120.67-18.5L120.67-18.5Q123.13-16.08 124.72-14.15L124.72-14.15Q125.68-12.79 124.54-11.21L124.54-11.21Q122.78-8.75 121.07-11.07L121.07-11.07Q120.54-11.65 119.71-12.66L119.71-12.66Q118.43-6.5 115.66-2.11L115.66-2.11Q114.83-0.97 114.04-0.86 113.25-0.75 112.15-1.58L112.15-1.58Q111.05-2.46 110.96-3.32 110.87-4.17 111.75-5.27L111.75-5.27Q114.61-9.54 115.8-16.79L115.8-16.79Q113.99-18.59 112.15-20.17L112.15-20.17Q110.52-21.45 111.84-23.16 113.16-24.87 114.83-23.6L114.83-23.6Q115.36-23.2 116.41-22.32L116.41-22.32Q116.67-25.58 116.76-30.54L116.76-30.54 110.21-30.54Q109.95-23.07 109.2-17.67L109.2-17.67Q111.49-15.38 112.32-14.28L112.32-14.28Q113.29-12.88 112.24-11.38L112.24-11.38Q110.43-9.01 108.68-11.34L108.68-11.34Q108.63-11.38 108.19-11.95L108.19-11.95Q106.88-6.24 104.37-2.33L104.37-2.33Q103.58-1.19 102.81-1.05 102.04-0.92 100.94-1.76L100.94-1.76Q99.8-2.64 99.71-3.45 99.62-4.26 100.5-5.41L100.5-5.41Q103.23-9.62 104.37-16.17L104.37-16.17Q103.14-17.4 100.59-19.6L100.59-19.6Q98.92-20.87 100.2-22.63L100.2-22.63Q101.43-24.39 103.23-23.07L103.23-23.07Q103.45-22.85 104.08-22.35 104.72-21.84 105.07-21.53L105.07-21.53Q105.34-24.48 105.51-30.54L105.51-30.54 99.89-30.54Q98.83-30.54 98.83-29.49L98.83-29.49 98.83 1.32Q98.83 3.82 96.28 3.82 93.74 3.82 93.74 1.32L93.74 1.32 93.74-32.7Q93.74-34.01 94.55-34.83 95.36-35.64 96.68-35.64ZM150.78-2.72L150.78-2.72Q149.63-2.29 147.55-1.47 145.46-0.66 143.75 0 142.03 0.66 140.54 1.23L140.54 1.23Q137.86 2.24 137.24-0.62L137.24-0.62Q136.98-1.98 137.29-2.68 137.59-3.38 138.78-3.74L138.78-3.74Q143.35-5.1 149.19-7.16L149.19-7.16Q151.79-8.09 152.31-5.58L152.31-5.58Q152.71-3.43 150.78-2.72ZM156.88-13.45L156.88-13.45 173.36-13.45Q168.49-15.34 165.01-17.84L165.01-17.84Q161.19-15.21 156.88-13.45ZM169.89-4.53L169.89-8.79 159.87-8.79 159.87-4.53Q159.87-3.47 160.97-3.47L160.97-3.47 168.79-3.47Q169.89-3.47 169.89-4.53L169.89-4.53ZM145.85-14.99L151.66-16.17Q151.61-16.26 151.44-16.57 151.26-16.88 151.28-17.05 151.3-17.23 151.57-17.31L151.57-17.31Q156.62-18.54 161.02-21.14L161.02-21.14Q159.08-23.07 157.54-25.18L157.54-25.18Q156.49-23.95 155.87-23.33L155.87-23.33Q155.21-22.72 154.51-22.79 153.81-22.85 153.37-23.6L153.37-23.6 152.71-24.52Q149.28-18.98 145.85-14.99L145.85-14.99ZM169.72-29.18L169.72-29.18 160.49-29.18Q162.33-26.15 164.88-23.86L164.88-23.86Q167.87-26.28 169.72-29.18ZM172.05 1.23L172.05 1.23 157.98 1.23Q156.67 1.23 155.87 0.42 155.08-0.4 155.08-1.71L155.08-1.71 155.08-12.79Q155.04-12.79 154.78-12.68 154.51-12.57 154.4-12.52 154.29-12.48 154.03-12.41 153.76-12.35 153.65-12.37 153.54-12.39 153.35-12.41 153.15-12.44 153.04-12.57 152.93-12.7 152.89-12.88L152.89-12.88Q152.62-13.89 151.92-15.56L151.92-15.56Q151.83-14.85 151.83-13.27L151.83-13.27Q151.92-12.39 151.13-11.76 150.34-11.12 148.18-10.63L148.18-10.63Q141.11-8.88 139.75-8.83L139.75-8.83Q137.81-8.7 137.33-10.06L137.33-10.06Q137.07-10.59 137.18-11.21 137.29-11.82 137.37-12.17 137.46-12.52 137.86-13.03 138.25-13.54 138.56-13.82 138.87-14.11 139.35-14.59 139.83-15.07 140.1-15.38L140.1-15.38Q141.15-16.44 143.53-19.64L143.53-19.64Q139.13-19.2 137.86-18.63L137.86-18.63Q137.77-18.9 137.48-19.78 137.2-20.65 137.07-21.09L137.07-21.09Q136.63-22.32 136.87-23.36 137.11-24.39 137.9-24.96L137.9-24.96Q137.94-25 138.87-26.28L138.87-26.28Q140.89-29.05 143.22-34.54L143.22-34.54Q143.79-36.08 144.89-36.78 145.99-37.49 147.3-36.87L147.3-36.87Q149.68-35.73 148.49-33.22L148.49-33.22Q146.25-28.65 142.95-24.13L142.95-24.13 146.6-24.43Q147.44-25.75 147.92-26.63L147.92-26.63Q148.36-27.51 149.13-27.73 149.9-27.95 150.73-27.42L150.73-27.42 151.74-26.76Q156.09-30.37 158.99-36.47L158.99-36.47Q159.87-38.67 162.11-38.01L162.11-38.01Q164.53-37.31 163.65-35.02L163.65-35.02Q163.56-34.85 163.41-34.5 163.26-34.15 163.17-33.97L163.17-33.97 173.32-33.97Q174.86-33.97 175.43-33.02 176-32.08 175.39-30.19L175.39-30.19Q173.23-25 168.93-21.01L168.93-21.01Q171.47-19.47 175.12-18.33L175.12-18.33Q176.66-17.93 177.19-16.79 177.71-15.64 177.14-14.15L177.14-14.15Q176.57-12.44 175.03-12.88L175.03-12.88Q174.99-12.92 174.95-12.92L174.95-12.92 174.95-1.71Q174.95-0.4 174.16 0.42 173.36 1.23 172.05 1.23Z" transform="translate(-2.878117322921753, 38.16230773925781)"></path></g> <!----> <!----> <!----> <!----> <!----> <!----> <!----></g></g> <g data-gra="path-slogan" fill-rule="" class="tp-slogan iconsvg-slogansvg" fill="#abcd03" transform="translate(41.22498321533203,48.134620666503906)"><!----> <!----> <g transform="scale(1, 1)"><g transform="scale(1)"><path d="M4.13-7.64L2.06-7.64L2.06-4.97L4.13-4.97Q5.95-4.92 5.91-6.38L5.91-6.38Q5.91-7.64 4.13-7.64L4.13-7.64ZM4.59 0L0.89 0L0.89-8.58L4.69-8.58Q6.98-8.48 7.08-6.42L7.08-6.42Q7.08-5.16 5.95-4.64L5.95-4.64Q7.55-4.08 7.55-2.53L7.55-2.53Q7.41-0.09 4.59 0L4.59 0ZM4.31-3.98L2.06-3.98L2.06-0.98L4.55-0.98Q6.33-1.03 6.38-2.53L6.38-2.53Q6.38-3.98 4.31-3.98L4.31-3.98ZM15.66-4.27L15.66-4.27Q15.47-7.64 12.66-7.83L12.66-7.83Q9.80-7.69 9.66-4.27L9.66-4.27Q9.80-0.94 12.66-0.80L12.66-0.80Q15.47-0.98 15.66-4.27ZM16.83-4.27L16.83-4.27Q16.55 0 12.66 0.14L12.66 0.14Q8.72 0 8.44-4.27L8.44-4.27Q8.67-8.72 12.66-8.81L12.66-8.81Q16.55-8.67 16.83-4.27ZM24.94-8.58L22.03-4.41L25.08 0L23.63 0L21.28-3.52L18.94 0L17.53 0L20.63-4.41L17.72-8.58L19.17-8.58L21.33-5.30L23.53-8.58L24.94-8.58ZM26.34-8.58L27.52-8.58L27.52 0L26.34 0L26.34-8.58ZM34.22-8.58L38.53-1.64L38.53-8.58L39.66-8.58L39.66 0L38.34 0L33.98-6.94L33.94-6.94L33.94 0L32.81 0L32.81-8.58L34.22-8.58ZM42.75-1.03L47.91-1.03L47.91 0L41.58 0L41.58-8.58L47.81-8.58L47.81-7.59L42.75-7.59L42.75-4.92L47.44-4.92L47.44-3.89L42.75-3.89L42.75-1.03ZM51.61-7.59L48.70-7.59L48.70-8.58L55.64-8.58L55.64-7.59L52.73-7.59L52.73 0L51.61 0L51.61-7.59ZM61.45-7.13L61.41-7.13L59.44 0L58.22 0L55.97-8.58L57.19-8.58L58.83-1.59L58.88-1.59L60.80-8.58L62.06-8.58L63.98-1.59L64.03-1.59L65.63-8.58L66.89-8.58L64.64 0L63.42 0L61.45-7.13ZM74.77-4.27L74.77-4.27Q74.58-7.64 71.77-7.83L71.77-7.83Q68.91-7.69 68.77-4.27L68.77-4.27Q68.91-0.94 71.77-0.80L71.77-0.80Q74.58-0.98 74.77-4.27ZM75.94-4.27L75.94-4.27Q75.66 0 71.77 0.14L71.77 0.14Q67.83 0 67.55-4.27L67.55-4.27Q67.78-8.72 71.77-8.81L71.77-8.81Q75.66-8.67 75.94-4.27ZM81.42-3.70L78.61-3.70L78.61 0L77.44 0L77.44-8.58L81.42-8.58Q84.28-8.58 84.28-6.28L84.28-6.28Q84.28-4.88 83.06-4.22L83.06-4.22Q84.09-3.94 84.09-2.58L84.09-2.58L84.19-1.03Q84.14-0.38 84.61-0.19L84.61-0.19L84.61 0L83.16 0Q83.02-0.61 82.97-2.16L82.97-2.16Q83.02-3.70 81.42-3.70L81.42-3.70ZM81.52-7.64L78.61-7.64L78.61-4.69L81.33-4.69Q83.06-4.69 83.06-6.19L83.06-6.19Q83.06-7.64 81.52-7.64L81.52-7.64ZM88.45-4.31L87.09-3.05L87.09 0L85.92 0L85.92-8.58L87.09-8.58L87.09-4.41L91.27-8.58L92.91-8.58L89.30-5.11L93 0L91.45 0L88.45-4.31Z" transform="translate(-0.890625, 8.8125)"></path></g></g></g></g></g><defs v-gra="od"></defs></svg>